<svg width="80" height="80" viewBox="0 0 80 80" fill="none" xmlns="http://www.w3.org/2000/svg">
<rect width="80" height="80" rx="40" fill="#1877F2"/>
<g clip-path="url(#clip0_264_30)">
<path d="M65 40C65 26.193 53.807 15 40 15C26.193 15 15 26.1928 15 40C15 52.4781 24.1422 62.8209 36.0938 64.6963V47.2266H29.7461V40H36.0938V34.4922C36.0938 28.2266 39.8262 24.7656 45.5365 24.7656C48.2719 24.7656 51.1328 25.2539 51.1328 25.2539V31.4062H47.9805C44.8746 31.4062 43.9062 33.3334 43.9062 35.3105V40H50.8398L49.7314 47.2266H43.9062V64.6963C55.8578 62.8209 65 52.4783 65 40Z" fill="white"/>
<path d="M49.7314 47.2266L50.8398 40H43.9062V35.3105C43.9062 33.3332 44.8748 31.4062 47.9805 31.4062H51.1328V25.2539C51.1328 25.2539 48.2719 24.7656 45.5365 24.7656C39.8262 24.7656 36.0938 28.2266 36.0938 34.4922V40H29.7461V47.2266H36.0938V64.6963C37.386 64.8988 38.692 65.0003 40 65C41.308 65.0004 42.614 64.8988 43.9062 64.6963V47.2266H49.7314Z" fill="#1877F2"/>
</g>
<defs>
<clipPath id="clip0_264_30">
<rect width="50" height="50" fill="white" transform="translate(15 15)"/>
</clipPath>
</defs>
</svg>
