<svg width="80" height="80" viewBox="0 0 80 80" fill="none" xmlns="http://www.w3.org/2000/svg">
<rect width="80" height="80" rx="40" fill="#343434"/>
<path d="M39.9805 18.7256C27.9053 18.7207 18.125 28.4961 18.125 40.5615C18.125 50.1025 24.2432 58.2129 32.7637 61.1914C33.9111 61.4795 33.7354 60.6641 33.7354 60.1074V56.3232C27.1094 57.0996 26.8408 52.7148 26.3965 51.9824C25.498 50.4492 23.374 50.0586 24.0088 49.3262C25.5176 48.5498 27.0557 49.5215 28.8379 52.1533C30.127 54.0625 32.6416 53.7402 33.916 53.4229C34.1943 52.2754 34.79 51.25 35.6103 50.4541C28.7451 49.2236 25.8838 45.0342 25.8838 40.0537C25.8838 37.6367 26.6797 35.415 28.2422 33.623C27.2461 30.6689 28.335 28.1397 28.4814 27.7637C31.3184 27.5098 34.2676 29.7949 34.4971 29.9756C36.1084 29.541 37.9492 29.3115 40.0098 29.3115C42.0801 29.3115 43.9258 29.5508 45.5518 29.9902C46.1035 29.5703 48.8379 27.6074 51.4746 27.8467C51.6162 28.2227 52.6807 30.6934 51.7432 33.6084C53.3252 35.4053 54.1309 37.6465 54.1309 40.0684C54.1309 45.0586 51.25 49.2529 44.3652 50.4639C44.9549 51.0438 45.4232 51.7354 45.7426 52.4983C46.062 53.2612 46.2262 54.0802 46.2256 54.9072V60.4004C46.2646 60.8398 46.2256 61.2744 46.958 61.2744C55.6055 58.3594 61.8311 50.1904 61.8311 40.5664C61.8311 28.4961 52.0459 18.7256 39.9805 18.7256Z" fill="white"/>
</svg>
