<svg width="80" height="80" viewBox="0 0 80 80" fill="none" xmlns="http://www.w3.org/2000/svg">
<rect x="0.5" y="0.5" width="79" height="79" rx="39.5" fill="white"/>
<path d="M60.428 35.9196H58.7498V35.8332H39.9998V44.1665H51.7738C50.0561 49.0175 45.4405 52.4998 39.9998 52.4998C33.0967 52.4998 27.4998 46.903 27.4998 39.9998C27.4998 33.0967 33.0967 27.4998 39.9998 27.4998C43.1863 27.4998 46.0853 28.7019 48.2925 30.6655L54.1853 24.7728C50.4644 21.305 45.4873 19.1665 39.9998 19.1665C28.4946 19.1665 19.1665 28.4946 19.1665 39.9998C19.1665 51.505 28.4946 60.8332 39.9998 60.8332C51.505 60.8332 60.8332 51.505 60.8332 39.9998C60.8332 38.603 60.6894 37.2394 60.428 35.9196Z" fill="#FFC107"/>
<path d="M21.5688 30.303L28.4136 35.3228C30.2657 30.7373 34.7511 27.4998 40.0001 27.4998C43.1866 27.4998 46.0855 28.7019 48.2928 30.6655L54.1855 24.7728C50.4647 21.305 45.4876 19.1665 40.0001 19.1665C31.998 19.1665 25.0584 23.6842 21.5688 30.303Z" fill="#FF3D00"/>
<path d="M40 60.8336C45.3812 60.8336 50.2708 58.7742 53.9677 55.4252L47.5198 49.969C45.3579 51.6131 42.7161 52.5024 40 52.5002C34.5812 52.5002 29.9802 49.045 28.2469 44.2231L21.4531 49.4575C24.901 56.2044 31.9031 60.8336 40 60.8336Z" fill="#4CAF50"/>
<path d="M60.4281 35.92H58.75V35.8335H40V44.1668H51.774C50.9523 46.4756 49.4722 48.4931 47.5167 49.97L47.5198 49.9679L53.9677 55.4241C53.5115 55.8387 60.8333 50.4168 60.8333 40.0002C60.8333 38.6033 60.6896 37.2397 60.4281 35.92Z" fill="#1976D2"/>
<rect x="0.5" y="0.5" width="79" height="79" rx="39.5" stroke="#E0E0E0"/>
</svg>
