<svg width="40" height="40" viewBox="0 0 40 40" fill="none" xmlns="http://www.w3.org/2000/svg">
<rect width="40" height="40" rx="20" fill="#3EAF0E"/>
<path d="M5.08245 18.5671L9.53984 14.3079C10.1761 13.6999 11.2307 14.1509 11.2307 15.0309V23.3513C11.2307 24.22 10.1993 24.6755 9.5572 24.0905L5.09982 20.0293C4.67145 19.639 4.66348 18.9675 5.08245 18.5671Z" fill="#EFEFEF"/>
<path d="M25.9241 27.0779L21.0227 22.1765C20.6291 21.7829 19.9898 21.7864 19.6006 22.1845L14.2381 27.6689C13.8517 28.064 13.8591 28.6976 14.2545 29.0836L19.2767 33.9861C19.6749 34.3748 20.3138 34.3637 20.6982 33.9614L25.94 28.4758C26.3154 28.0829 26.3084 27.4621 25.9241 27.0779Z" fill="#EFEFEF"/>
<path d="M26.6373 11.4218L15.9808 21.8276C15.3512 22.4424 14.2918 22.0029 14.2822 21.123L14.1583 9.72811C14.1554 9.45914 14.261 9.20034 14.4512 9.01014L19.1609 4.30036C19.5428 3.91853 20.1588 3.90881 20.5525 4.2784L26.6231 9.9773C27.0382 10.367 27.0446 11.0241 26.6373 11.4218Z" fill="#EFEFEF"/>
<path d="M34.7964 18.447L29.7755 13.6652C29.3856 13.2939 28.7719 13.2979 28.3869 13.6741L23.0398 18.8997C22.6383 19.2921 22.6384 19.9382 23.0402 20.3304L28.0621 25.2328C28.454 25.6153 29.0806 25.6115 29.4678 25.2243L34.8138 19.8783C35.2111 19.481 35.2032 18.8345 34.7964 18.447Z" fill="#EFEFEF"/>
</svg>
