<svg width="20" height="20" viewBox="0 0 20 20" fill="none" xmlns="http://www.w3.org/2000/svg">
<path d="M16.6875 0.375977H3.5625C2.81658 0.375977 2.10121 0.672293 1.57376 1.19974C1.04632 1.72718 0.75 2.44256 0.75 3.18848V16.3135C0.75 17.0594 1.04632 17.7748 1.57376 18.3022C2.10121 18.8297 2.81658 19.126 3.5625 19.126H16.6875C16.8417 19.1238 16.9954 19.1081 17.1469 19.0791L17.4281 19.0135H17.4938H17.5406L17.8875 18.8822L18.0094 18.8166C18.1031 18.7604 18.2062 18.7135 18.3 18.6479C18.4252 18.5557 18.5442 18.4555 18.6562 18.3479L18.7219 18.2635C18.8139 18.1702 18.8985 18.0699 18.975 17.9635L19.0594 17.8416C19.1249 17.7372 19.1813 17.6275 19.2281 17.5135C19.2538 17.4685 19.2758 17.4215 19.2938 17.3729C19.3406 17.2604 19.3687 17.1385 19.4062 17.0166V16.876C19.4594 16.6928 19.4909 16.504 19.5 16.3135V3.18848C19.5 2.44256 19.2037 1.72718 18.6762 1.19974C18.1488 0.672293 17.4334 0.375977 16.6875 0.375977ZM3.5625 17.251C3.31386 17.251 3.0754 17.1522 2.89959 16.9764C2.72377 16.8006 2.625 16.5621 2.625 16.3135V12.2729L5.70937 9.1791C5.79653 9.09123 5.90022 9.02149 6.01446 8.97389C6.1287 8.9263 6.25124 8.90179 6.375 8.90179C6.49876 8.90179 6.6213 8.9263 6.73554 8.97389C6.84978 9.02149 6.95347 9.09123 7.04063 9.1791L15.1031 17.251H3.5625ZM17.625 16.3135C17.6241 16.4291 17.6019 16.5435 17.5594 16.651C17.5379 16.6967 17.5129 16.7406 17.4844 16.7822C17.4593 16.8219 17.4311 16.8595 17.4 16.8947L12.3844 11.8791L13.2094 11.0541C13.2965 10.9662 13.4002 10.8965 13.5145 10.8489C13.6287 10.8013 13.7512 10.7768 13.875 10.7768C13.9988 10.7768 14.1213 10.8013 14.2355 10.8489C14.3498 10.8965 14.4535 10.9662 14.5406 11.0541L17.625 14.1479V16.3135ZM17.625 11.4947L15.8625 9.75098C15.326 9.24191 14.6146 8.95811 13.875 8.95811C13.1354 8.95811 12.424 9.24191 11.8875 9.75098L11.0625 10.576L8.3625 7.87598C7.82599 7.36691 7.11459 7.08311 6.375 7.08311C5.63541 7.08311 4.92401 7.36691 4.3875 7.87598L2.625 9.61973V3.18848C2.625 2.93984 2.72377 2.70138 2.89959 2.52556C3.0754 2.34975 3.31386 2.25098 3.5625 2.25098H16.6875C16.9361 2.25098 17.1746 2.34975 17.3504 2.52556C17.5262 2.70138 17.625 2.93984 17.625 3.18848V11.4947ZM11.5312 4.12598C11.2531 4.12598 10.9812 4.20845 10.75 4.36297C10.5187 4.51749 10.3385 4.73712 10.232 4.99408C10.1256 5.25104 10.0978 5.53379 10.152 5.80657C10.2063 6.07936 10.3402 6.32993 10.5369 6.5266C10.7335 6.72326 10.9841 6.8572 11.2569 6.91146C11.5297 6.96572 11.8124 6.93787 12.0694 6.83143C12.3264 6.725 12.546 6.54475 12.7005 6.3135C12.855 6.08224 12.9375 5.81036 12.9375 5.53223C12.9375 5.15927 12.7893 4.80158 12.5256 4.53786C12.2619 4.27413 11.9042 4.12598 11.5312 4.12598Z" fill="#B6B6B6"/>
</svg>
