<svg width="48" height="48" viewBox="0 0 48 48" fill="none" xmlns="http://www.w3.org/2000/svg">
<g clip-path="url(#clip0_1075_81)">
<path d="M3.26354 22.788V39.9648H10.5355L10.9027 40.008C17.6539 41.5824 22.1275 42.7176 24.3571 43.4208C27.3187 44.3544 28.4227 44.5824 30.4315 44.7168C31.9339 44.82 33.6403 44.2416 34.4179 43.4496C34.8475 43.0128 35.1691 42.1152 35.2963 40.7232C35.3227 40.4314 35.427 40.1519 35.5985 39.9142C35.7699 39.6765 36.0021 39.4892 36.2707 39.372C36.8683 39.1129 37.3651 38.6904 37.7803 38.076C38.1643 37.5144 38.4139 36.468 38.4595 34.9536C38.4676 34.6752 38.5465 34.4035 38.6889 34.1641C38.8312 33.9247 39.0323 33.7256 39.2731 33.5856C40.6699 32.7768 41.3611 31.8648 41.5051 30.7944C41.6635 29.6112 41.2795 28.2792 40.2739 26.7624C40.038 26.4067 39.9501 25.973 40.029 25.5535C40.1079 25.134 40.3473 24.7618 40.6963 24.516C41.6587 23.8392 42.1867 22.8984 42.3187 21.564C42.5299 19.4376 41.1739 17.8656 38.1043 17.5512C35.3704 17.2809 32.6101 17.511 29.9587 18.2304C29.658 18.309 29.341 18.3001 29.0452 18.2047C28.7493 18.1093 28.4869 17.9313 28.2887 17.6918C28.0905 17.4523 27.9649 17.1612 27.9266 16.8527C27.8882 16.5442 27.9388 16.2312 28.0723 15.9504C29.2723 13.4112 29.9395 11.316 30.0955 9.69365C30.2995 7.54084 29.8027 5.98084 28.6411 4.69444C27.7603 3.72004 26.3515 3.16324 25.8235 3.27844C25.1275 3.42724 24.6739 3.83044 24.0835 5.24164C23.7355 6.07684 23.5675 6.78724 23.2795 8.44564C23.0035 10.02 22.8523 10.7304 22.5379 11.6616C21.5899 14.484 19.2643 17.4096 16.1419 19.428C13.9536 20.841 11.5819 21.9473 9.09314 22.716C8.93765 22.764 8.77584 22.7882 8.61314 22.788H3.26354ZM3.16274 43.236C2.38754 43.2576 1.69154 43.0848 1.10834 42.6768C0.364337 42.156 0.0139367 41.3352 0.00673672 40.3896L0.0139367 22.8144C-0.0676633 21.8784 0.208337 21.0192 0.861137 20.3808C1.47314 19.7808 2.27234 19.4976 3.11714 19.5168H8.36114C10.4824 18.8409 12.5048 17.887 14.3755 16.68C16.8907 15.0528 18.7435 12.72 19.4515 10.6176C19.6939 9.89284 19.8235 9.29284 20.0683 7.88164C20.3995 5.98804 20.6059 5.10724 21.0811 3.97444C22.0651 1.61764 23.3563 0.465644 25.1371 0.0792441C26.8891 -0.299956 29.4403 0.710444 31.0531 2.49604C32.8411 4.47364 33.6307 6.94805 33.3379 10.0056C33.2131 11.3208 32.8483 12.792 32.2483 14.4312C34.2974 14.1326 36.3754 14.0875 38.4355 14.2968C43.2523 14.7888 45.9571 17.9256 45.5635 21.8904C45.3907 23.5992 44.7715 25.0512 43.7179 26.1912C44.6035 27.8976 44.9563 29.5848 44.7355 31.2312C44.4811 33.1272 43.4251 34.7064 41.6683 35.9328C41.5315 37.596 41.1499 38.9232 40.4731 39.9168C39.9399 40.7196 39.2441 41.4015 38.4307 41.9184C38.1715 43.56 37.6267 44.8441 36.7363 45.7464C35.2603 47.2488 32.6227 48.1441 30.2131 47.9809C27.9259 47.8272 26.5723 47.5488 23.3803 46.5408C21.2755 45.876 16.9171 44.772 10.3483 43.236H3.16034H3.16274ZM7.24514 22.0416C7.24451 21.8269 7.28625 21.6142 7.36799 21.4156C7.44972 21.2171 7.56983 21.0366 7.72144 20.8845C7.87305 20.7325 8.05317 20.6118 8.25149 20.5295C8.4498 20.4472 8.66241 20.4048 8.87714 20.4048C9.09145 20.4055 9.30355 20.4483 9.50131 20.5309C9.69907 20.6135 9.87863 20.7342 10.0297 20.8862C10.1808 21.0382 10.3005 21.2185 10.3819 21.4167C10.4634 21.615 10.505 21.8273 10.5043 22.0416V40.4688C10.5047 40.6832 10.4628 40.8954 10.381 41.0936C10.2993 41.2917 10.1794 41.4718 10.028 41.6236C9.87671 41.7753 9.69698 41.8958 9.49909 41.9781C9.30121 42.0604 9.08905 42.1029 8.87474 42.1032C8.66042 42.1029 8.44826 42.0604 8.25038 41.9781C8.0525 41.8958 7.87276 41.7753 7.72144 41.6236C7.57012 41.4718 7.45017 41.2917 7.36845 41.0936C7.28672 40.8954 7.24482 40.6832 7.24514 40.4688V22.0416Z" fill="white"/>
</g>
<defs>
<clipPath id="clip0_1075_81">
<rect width="48" height="48" fill="white"/>
</clipPath>
</defs>
</svg>
