<svg width="24" height="24" viewBox="0 0 24 24" fill="none" xmlns="http://www.w3.org/2000/svg">
<path d="M17.222 15.2045L16.9698 15.5501L17.2722 15.8527L23.2069 21.7909L23.207 21.7911C23.5977 22.1817 23.5977 22.8164 23.207 23.207C22.8163 23.5976 22.1814 23.5977 21.7906 23.2072C21.7906 23.2071 21.7906 23.2071 21.7906 23.2071C21.7906 23.2071 21.7905 23.2071 21.7905 23.207L15.856 17.269L15.5528 16.9657L15.2069 17.219C13.6775 18.3392 11.7929 18.9971 9.75048 18.9971C4.64033 18.9971 0.5 14.8575 0.5 9.74857C0.5 4.63966 4.64033 0.5 9.75048 0.5C14.8606 0.5 19.001 4.63966 19.001 9.74857C19.001 11.7898 18.3386 13.6745 17.222 15.2045ZM9.75048 16.9976C13.7533 16.9976 17.0008 13.7508 17.0008 9.74857C17.0008 5.74632 13.7533 2.49956 9.75048 2.49956C5.74768 2.49956 2.50015 5.74632 2.50015 9.74857C2.50015 13.7508 5.74768 16.9976 9.75048 16.9976Z" fill="black" stroke="black"/>
</svg>
