<svg width="34" height="38" viewBox="0 0 34 38" fill="none" xmlns="http://www.w3.org/2000/svg">
<path d="M28.25 26.125C26.9141 26.125 25.6812 26.5938 24.7156 27.3766L15.0031 20.35C15.1658 19.4573 15.1658 18.5427 15.0031 17.65L24.7156 10.6234C25.6812 11.4062 26.9141 11.875 28.25 11.875C31.3531 11.875 33.875 9.35312 33.875 6.25C33.875 3.14688 31.3531 0.625 28.25 0.625C25.1469 0.625 22.625 3.14688 22.625 6.25C22.625 6.79375 22.7 7.31406 22.8453 7.81094L13.6203 14.4906C12.2516 12.6766 10.0766 11.5 7.625 11.5C3.48125 11.5 0.125 14.8562 0.125 19C0.125 23.1437 3.48125 26.5 7.625 26.5C10.0766 26.5 12.2516 25.3234 13.6203 23.5094L22.8453 30.1891C22.7 30.6859 22.625 31.2109 22.625 31.75C22.625 34.8531 25.1469 37.375 28.25 37.375C31.3531 37.375 33.875 34.8531 33.875 31.75C33.875 28.6469 31.3531 26.125 28.25 26.125ZM28.25 3.8125C29.5953 3.8125 30.6875 4.90469 30.6875 6.25C30.6875 7.59531 29.5953 8.6875 28.25 8.6875C26.9047 8.6875 25.8125 7.59531 25.8125 6.25C25.8125 4.90469 26.9047 3.8125 28.25 3.8125ZM7.625 23.125C5.35156 23.125 3.5 21.2734 3.5 19C3.5 16.7266 5.35156 14.875 7.625 14.875C9.89844 14.875 11.75 16.7266 11.75 19C11.75 21.2734 9.89844 23.125 7.625 23.125ZM28.25 34.1875C26.9047 34.1875 25.8125 33.0953 25.8125 31.75C25.8125 30.4047 26.9047 29.3125 28.25 29.3125C29.5953 29.3125 30.6875 30.4047 30.6875 31.75C30.6875 33.0953 29.5953 34.1875 28.25 34.1875Z" fill="white"/>
</svg>
