<svg width="20" height="10" viewBox="0 0 20 10" fill="none" xmlns="http://www.w3.org/2000/svg">
<path d="M9.91844 9.29854C9.58743 9.29914 9.26665 9.19107 9.01177 8.99307L0.511774 2.35245C0.222467 2.12701 0.0405326 1.80307 0.00599463 1.45187C-0.0285433 1.10068 0.0871444 0.751013 0.327607 0.479788C0.56807 0.208562 0.913612 0.0379993 1.28822 0.00561999C1.66282 -0.0267593 2.0358 0.0816972 2.32511 0.307131L9.91844 6.25713L17.5118 0.519632C17.6567 0.40931 17.8234 0.326924 18.0024 0.27721C18.1814 0.227496 18.3691 0.211434 18.5547 0.229947C18.7403 0.24846 18.9202 0.301183 19.084 0.385085C19.2479 0.468988 19.3924 0.582417 19.5093 0.718851C19.639 0.85541 19.7373 1.01562 19.7979 1.18943C19.8585 1.36325 19.8802 1.54693 19.8616 1.72897C19.843 1.91101 19.7844 2.08748 19.6897 2.24732C19.5949 2.40717 19.466 2.54696 19.3109 2.65791L10.8109 9.07276C10.5487 9.23946 10.2345 9.31895 9.91844 9.29854Z" fill="#231F20"/>
</svg>
